# xmcd CD database file
# Copyright (C) 1997 Ti Kan
# 
# Track frame offsets:
#     187
#     27905
#     44697
#     57797
#     75572
#     91390
#     104895
#     125190
#     149212
#     163947
#     200987
#     224367
#     250147
#     270972
#     292910
#     312797
# 
# Disc length: 4470 seconds
# 
# Revision: 1
# Processed by: cddbd v1.4b41PL1 Copyright (c) Steve Scherf et al.
# Submitted via: DiscPlay 4.0.4
# 
DISCID=fd117410
DTITLE=Various Artist - American Folk Blues Festival "70
DYEAR=1900
DGENRE=
TTITLE0=Introduction
TTITLE1=Hard Hearted Woman
TTITLE2=That Ain't It
TTITLE3=Magic Lee
TTITLE4=World Boogie
TTITLE5=Old Lady
TTITLE6=Going To Louisiana
TTITLE7=Blues Before Sunrise
TTITLE8=Hootin' The Blues
TTITLE9=Back Water Blues
TTITLE10=Walk On
TTITLE11=When I Was Drinking
TTITLE12=Juanita
TTITLE13=After Hours
TTITLE14=Crazy For My Baby
TTITLE15=Sittin' And Cryin' The Blues
EXTD=
EXTT0=Shakey Horton , vocal and blues harp\nwith The Chicago Blues All Stars\n
EXTT1=
EXTT2=Bukka White, vocal and guitar\n
EXTT3=
EXTT4=
EXTT5=Champion Jack Dupree, vocal and piano\nwith Willie Dixon, bass\nClifton 
EXTT5=James, drums\n
EXTT6=
EXTT7=Sonny Terry, vocal and blues harp\nBrownie McGhee, guitar\n
EXTT8=
EXTT9=Brownie McGhee, vocal and guitar\nSonny Terry,  vocal and blues harp\nwith
EXTT9=Champion Jack Dupree, vocal and \npiano\nWillie Dixon, bass\nClifton Ja
EXTT9=mes, drums\n
EXTT10=Brownie McGhee, vocal and guitar\nSonny Terry, blues harp\n
EXTT11=Lee Jackson, vocal and guitar\nwith the Chicago Blues All Stars\n
EXTT12=Lafayette Leak, piano\nwith Willie Dixon, bass\nClifton James, drums\
EXTT13=Willie Dixon, vocal and bass\nwith the Chicago Blues All Stars\n
EXTT14=
EXTT15=
PLAYORDER=
